<mxfile host="app.diagrams.net" modified="2022-06-05T17:55:28.195Z" agent="5.0 (X11; CrOS armv7l 13597.84.0) AppleWebKit/537.36 (KHTML, like Gecko) Chrome/92.0.4515.98 Safari/537.36" etag="49mRVq6WodptU1Y4PZpC" version="19.0.0" type="github">
  <diagram id="YqcAMcOBWE7lSPVI7W-R" name="Page-1">
    <mxGraphModel dx="1182" dy="692" grid="1" gridSize="10" guides="1" tooltips="1" connect="1" arrows="1" fold="1" page="1" pageScale="1" pageWidth="827" pageHeight="1169" math="0" shadow="0">
      <root>
        <mxCell id="0" />
        <mxCell id="1" parent="0" />
        <mxCell id="oZnyojDCq1k0_cdy5mf5-19" value="" style="rounded=0;whiteSpace=wrap;html=1;shadow=0;fontSize=15;fontColor=#FFD966;strokeWidth=1;fillColor=default;strokeColor=#66B2FF;" vertex="1" parent="1">
          <mxGeometry x="30" y="20" width="360" height="220" as="geometry" />
        </mxCell>
        <mxCell id="oZnyojDCq1k0_cdy5mf5-2" value="&lt;b&gt;Filter Implementations&lt;/b&gt;" style="text;html=1;strokeColor=none;fillColor=none;align=center;verticalAlign=middle;whiteSpace=wrap;rounded=0;fontColor=#66B2FF;fontSize=15;" vertex="1" parent="1">
          <mxGeometry x="30" y="30" width="180" height="30" as="geometry" />
        </mxCell>
        <mxCell id="oZnyojDCq1k0_cdy5mf5-18" value="" style="rounded=0;whiteSpace=wrap;html=1;shadow=0;fontSize=15;fontColor=#FFD966;strokeWidth=1;fillColor=default;strokeColor=#FFD966;" vertex="1" parent="1">
          <mxGeometry x="30" y="60" width="350" height="170" as="geometry" />
        </mxCell>
        <mxCell id="oZnyojDCq1k0_cdy5mf5-12" value="WebSecurityConfigurerAdapter&lt;br&gt;Implementations" style="text;html=1;strokeColor=none;fillColor=none;align=center;verticalAlign=middle;whiteSpace=wrap;rounded=0;fontSize=15;fontColor=#FFD966;" vertex="1" parent="1">
          <mxGeometry x="30" y="60" width="230" height="50" as="geometry" />
        </mxCell>
        <mxCell id="oZnyojDCq1k0_cdy5mf5-20" value="" style="rounded=0;whiteSpace=wrap;html=1;shadow=0;fontSize=15;fontColor=#FFD966;strokeWidth=1;fillColor=default;strokeColor=#FFCCE6;" vertex="1" parent="1">
          <mxGeometry x="30" y="110" width="340" height="110" as="geometry" />
        </mxCell>
        <mxCell id="oZnyojDCq1k0_cdy5mf5-15" value="UserDetailsService Imeplementations" style="text;html=1;strokeColor=none;fillColor=none;align=center;verticalAlign=middle;whiteSpace=wrap;rounded=0;fontColor=#FFCCE6;fontSize=15;" vertex="1" parent="1">
          <mxGeometry x="30" y="110" width="290" height="30" as="geometry" />
        </mxCell>
        <mxCell id="oZnyojDCq1k0_cdy5mf5-21" value="" style="rounded=0;whiteSpace=wrap;html=1;shadow=0;fontSize=15;fontColor=#FFD966;strokeWidth=1;fillColor=default;strokeColor=#FFE6CC;" vertex="1" parent="1">
          <mxGeometry x="30" y="150" width="330" height="50" as="geometry" />
        </mxCell>
        <mxCell id="oZnyojDCq1k0_cdy5mf5-8" value="UserDetails Implementation (Principal)" style="text;html=1;strokeColor=none;fillColor=none;align=center;verticalAlign=middle;whiteSpace=wrap;rounded=0;shadow=0;fontSize=15;fontColor=#FFE6CC;" vertex="1" parent="1">
          <mxGeometry x="30" y="160" width="270" height="30" as="geometry" />
        </mxCell>
        <mxCell id="oZnyojDCq1k0_cdy5mf5-9" style="edgeStyle=orthogonalEdgeStyle;rounded=0;orthogonalLoop=1;jettySize=auto;html=1;exitX=0.5;exitY=1;exitDx=0;exitDy=0;fontSize=15;fontColor=#FFD966;" edge="1" parent="1" source="oZnyojDCq1k0_cdy5mf5-8" target="oZnyojDCq1k0_cdy5mf5-8">
          <mxGeometry relative="1" as="geometry" />
        </mxCell>
        <mxCell id="oZnyojDCq1k0_cdy5mf5-23" value="" style="endArrow=classic;html=1;rounded=0;fontSize=15;fontColor=#66B2FF;exitX=1;exitY=0;exitDx=0;exitDy=0;strokeColor=#FFD966;" edge="1" parent="1" source="oZnyojDCq1k0_cdy5mf5-18" target="oZnyojDCq1k0_cdy5mf5-24">
          <mxGeometry width="50" height="50" relative="1" as="geometry">
            <mxPoint x="430" y="120" as="sourcePoint" />
            <mxPoint x="460" y="60" as="targetPoint" />
          </mxGeometry>
        </mxCell>
        <mxCell id="oZnyojDCq1k0_cdy5mf5-24" value="&lt;font color=&quot;#ffd966&quot;&gt;Authentication &amp;amp; WebSecurity&lt;/font&gt;" style="text;html=1;strokeColor=#FFD966;fillColor=none;align=center;verticalAlign=middle;whiteSpace=wrap;rounded=0;shadow=0;fontSize=15;fontColor=#66B2FF;" vertex="1" parent="1">
          <mxGeometry x="430" y="45" width="230" height="35" as="geometry" />
        </mxCell>
        <mxCell id="oZnyojDCq1k0_cdy5mf5-25" value="" style="endArrow=classic;html=1;rounded=0;fontSize=15;fontColor=#FFD966;strokeColor=#FFCCE6;exitX=1;exitY=0;exitDx=0;exitDy=0;" edge="1" parent="1" source="oZnyojDCq1k0_cdy5mf5-20">
          <mxGeometry width="50" height="50" relative="1" as="geometry">
            <mxPoint x="490" y="230" as="sourcePoint" />
            <mxPoint x="430" y="110" as="targetPoint" />
          </mxGeometry>
        </mxCell>
        <mxCell id="oZnyojDCq1k0_cdy5mf5-27" value="Authorization &amp;amp; UserDetailsService&amp;nbsp;" style="text;html=1;strokeColor=#FFCCE6;fillColor=none;align=center;verticalAlign=middle;whiteSpace=wrap;rounded=0;fontColor=#FFCCE6;fontSize=15;" vertex="1" parent="1">
          <mxGeometry x="431" y="100" width="229" height="50" as="geometry" />
        </mxCell>
      </root>
    </mxGraphModel>
  </diagram>
</mxfile>
